<?xml version="1.0" encoding="utf-8"?>
<!-- Generator: Adobe Illustrator 16.0.0, SVG Export Plug-In . SVG Version: 6.00 Build 0)  -->
<!DOCTYPE svg PUBLIC "-//W3C//DTD SVG 1.1//EN" "http://www.w3.org/Graphics/SVG/1.1/DTD/svg11.dtd">
<svg version="1.1" id="Layer_1" xmlns="http://www.w3.org/2000/svg" xmlns:xlink="http://www.w3.org/1999/xlink" x="0px" y="0px"
	 width="14.782px" height="16.471px" viewBox="1.066 1.001 14.782 16.471" enable-background="new 1.066 1.001 14.782 16.471"
	 xml:space="preserve">
<g id="Group_2561" transform="translate(-1507 -1497)">
	<rect id="Rectangle_471" x="1504.834" y="1495.702" fill="none" width="21.323" height="20.435"/>
	<path id="Icon_material-date-range" fill="#E0D177" d="M1513.126,1505.476h-1.579v1.578h1.579V1505.476z M1516.286,1505.476h-1.58
		v1.578h1.58V1505.476z M1519.445,1505.476h-1.58v1.578h1.58V1505.476z M1521.024,1499.947h-0.789v-1.58h-1.579v1.58h-6.32v-1.58
		h-1.579v1.58h-0.79c-0.869,0-1.572,0.704-1.572,1.573c0,0.002,0,0.004,0,0.006l-0.007,11.057c0,0.871,0.705,1.577,1.578,1.577
		c0.001,0,0.001,0,0.001,0h11.057c0.871-0.001,1.577-0.707,1.579-1.577v-11.057
		C1522.602,1500.655,1521.896,1499.95,1521.024,1499.947L1521.024,1499.947z M1521.024,1512.583h-11.056v-8.688h11.056V1512.583z"/>
</g>
</svg>
