<svg xmlns="http://www.w3.org/2000/svg" xmlns:xlink="http://www.w3.org/1999/xlink" width="29" height="28" viewBox="0 0 29 28">
  <defs>
    <clipPath id="clip-Artboard_1">
      <rect width="29" height="28"/>
    </clipPath>
  </defs>
  <g id="Artboard_1" data-name="Artboard – 1" clip-path="url(#clip-Artboard_1)">
    <rect width="29" height="28" fill="#fff"/>
    <g id="Ellipse_121" data-name="Ellipse 121" transform="translate(2 2)" fill="none" stroke="#592d8d" stroke-width="1">
      <circle cx="12" cy="12" r="12" stroke="none"/>
      <circle cx="12" cy="12" r="11.5" fill="none"/>
    </g>
    <path id="Icon_awesome-directions" data-name="Icon awesome-directions" d="M15.923,7.392,8.829.3A1.017,1.017,0,0,0,7.392.3L.3,7.392a1.017,1.017,0,0,0,0,1.437l7.094,7.094a1.016,1.016,0,0,0,1.437,0l7.094-7.094a1.016,1.016,0,0,0,0-1.437Zm-3.2.4-2.668,2.463a.254.254,0,0,1-.425-.186v-1.7H6.589v2.028a.253.253,0,0,1-.253.253H5.322a.253.253,0,0,1-.253-.253V7.857A1.014,1.014,0,0,1,6.083,6.843H9.631v-1.7a.254.254,0,0,1,.425-.186l2.668,2.463a.254.254,0,0,1,0,.373Z" transform="translate(6.277 5.585)" fill="#592d8d"/>
  </g>
</svg>
