<?xml version="1.0" encoding="utf-8"?>
<!-- Generator: Adobe Illustrator 16.0.0, SVG Export Plug-In . SVG Version: 6.00 Build 0)  -->
<!DOCTYPE svg PUBLIC "-//W3C//DTD SVG 1.1//EN" "http://www.w3.org/Graphics/SVG/1.1/DTD/svg11.dtd">
<svg version="1.1" id="Layer_1" xmlns="http://www.w3.org/2000/svg" xmlns:xlink="http://www.w3.org/1999/xlink" x="0px" y="0px"
	 width="12.878px" height="18.182px" viewBox="5.935 2.63 12.878 18.182" enable-background="new 5.935 2.63 12.878 18.182"
	 xml:space="preserve">
<g id="Group_2560" transform="translate(-1507 -1464)">
	<rect id="Rectangle_470" x="1507" y="1464" fill="none" width="24" height="23"/>
	<path id="Icon_material-location-on" fill="#E24747" d="M1519.456,1467c-3.397-0.002-6.154,2.75-6.156,6.148
		c0,0.002,0,0.005,0,0.008c0,4.617,6.156,11.433,6.156,11.433s6.155-6.815,6.155-11.433c0.003-3.398-2.75-6.154-6.147-6.156
		C1519.461,1467,1519.458,1467,1519.456,1467z M1519.456,1475.355c-1.215,0-2.2-0.985-2.2-2.2c0-1.215,0.985-2.2,2.2-2.2
		s2.2,0.985,2.2,2.2l0,0C1521.656,1474.37,1520.671,1475.355,1519.456,1475.355z"/>
</g>
</svg>
