<svg xmlns="http://www.w3.org/2000/svg" width="29.7" height="27" viewBox="0 0 29.7 27"><defs><style>.a{fill:#592d8d;}</style></defs><path class="a" d="M17.524,20.644,14.1,17.256l.04-.041A23.651,23.651,0,0,0,19.145,8.4H23.1V5.7H13.65V3h-2.7V5.7H1.5V8.386H16.579A21.212,21.212,0,0,1,12.3,15.622,21.121,21.121,0,0,1,9.181,11.1h-2.7A23.708,23.708,0,0,0,10.5,17.256L3.633,24.033,5.55,25.95,12.3,19.2l4.2,4.2,1.026-2.754Zm7.6-6.844h-2.7L16.35,30h2.7l1.512-4.05h6.412L28.5,30h2.7Zm-3.537,9.45L23.775,17.4l2.187,5.846Z" transform="translate(-1.5 -3)"/></svg>