<svg xmlns="http://www.w3.org/2000/svg" width="59.423" height="51.975" viewBox="0 0 59.423 51.975"><defs><style>.a{fill:#cdbede;}</style></defs><g transform="translate(-946.617 -461.536)"><g transform="translate(912 397.011)"><path class="a" d="M93.8,113.5l-27.7-48a2.058,2.058,0,0,0-3.5,0l-27.7,48a2,2,0,0,0,1.7,3H92A2.02,2.02,0,0,0,93.8,113.5Zm-31-36.1a1.5,1.5,0,0,1,3,0v22.9a1.5,1.5,0,1,1-3,0V77.4Zm1.5,33.1a3.009,3.009,0,0,1-3-3,3,3,0,1,1,3,3Z"/><path class="a" d="M64.3,107.5h0Z"/></g></g></svg>