<?xml version="1.0" encoding="utf-8"?>
<!-- Generator: Adobe Illustrator 16.0.0, SVG Export Plug-In . SVG Version: 6.00 Build 0)  -->
<!DOCTYPE svg PUBLIC "-//W3C//DTD SVG 1.1//EN" "http://www.w3.org/Graphics/SVG/1.1/DTD/svg11.dtd">
<svg version="1.1" id="Layer_1" xmlns="http://www.w3.org/2000/svg" xmlns:xlink="http://www.w3.org/1999/xlink" x="0px" y="0px"
	 width="16.342px" height="20.346px" viewBox="3.5 1.764 16.342 20.346" enable-background="new 3.5 1.764 16.342 20.346"
	 xml:space="preserve">
<g id="Group_2558" transform="translate(-1507 -1402)">
	<rect id="Rectangle_468" x="1507" y="1402" fill="none" width="24" height="23"/>
	<path id="Icon_map-police" fill="#CDBEDE" d="M1520.08,1412.093c0,1.4-1.03,1.4-1.586,1.4h-0.692v-2.643h0.87
		C1519.159,1410.85,1520.08,1410.85,1520.08,1412.093L1520.08,1412.093z M1525.398,1410.7c0.088-1.372,0.469-2.709,1.121-3.92
		l-2.486-2.78c-0.717,0.728-1.672,1.171-2.689,1.25c-0.919,0.096-1.844-0.112-2.633-0.594c-0.797,0.463-1.718,0.671-2.638,0.594
		c-0.953-0.097-1.849-0.494-2.56-1.135l-2.489,2.783c0.604,1.181,0.952,2.476,1.02,3.8c-0.011,0.865-0.171,1.722-0.471,2.533
		c-0.182,0.6-0.32,1.123-0.414,1.559c-0.074,0.346-0.127,0.696-0.159,1.048c-0.027,1.105,0.275,2.193,0.869,3.126
		c0.646,0.858,1.417,1.614,2.288,2.242c0.848,0.519,1.75,0.946,2.689,1.274l0.522,0.271c0.164,0.089,0.34,0.174,0.523,0.268
		c0.342,0.209,0.625,0.503,0.82,0.853c0.208-0.348,0.496-0.64,0.842-0.853c0.227-0.108,0.45-0.223,0.672-0.343
		c0.182-0.089,0.316-0.155,0.395-0.2c0.172-0.092,0.346-0.178,0.523-0.254c0.215-0.096,0.48-0.211,0.799-0.341
		c0.474-0.173,0.925-0.401,1.344-0.682c0.846-0.636,1.605-1.38,2.26-2.211c0.616-0.937,0.93-2.038,0.9-3.158
		c-0.111-0.859-0.313-1.704-0.6-2.522C1525.543,1412.473,1525.393,1411.589,1525.398,1410.7z M1520.836,1414.514
		c-0.549,0.328-1.185,0.479-1.822,0.433h-1.162v3.563h-1.747v-9.142h2.48c1.153,0,2.116,0.083,2.786,1
		c0.338,0.505,0.509,1.104,0.488,1.712C1521.912,1413.006,1521.535,1413.904,1520.836,1414.514z"/>
</g>
</svg>
