<svg xmlns="http://www.w3.org/2000/svg" xmlns:xlink="http://www.w3.org/1999/xlink" width="40" height="44" viewBox="0 0 40 44">
  <defs>
    <clipPath id="clip-Artboard_2">
      <rect width="40" height="44"/>
    </clipPath>
  </defs>
  <g id="Artboard_2" data-name="Artboard – 2" clip-path="url(#clip-Artboard_2)">
    <rect width="40" height="44" fill="rgba(255,255,255,0)"/>
    <g id="Group_11129" data-name="Group 11129" transform="translate(19786 14453)">
      <g id="Group_11116" data-name="Group 11116" transform="translate(-19779.385 -14448.461)">
        <rect id="Rectangle_2123" data-name="Rectangle 2123" width="14.003" height="14" transform="translate(6.945 9.737)" fill="rgba(0,0,0,0.97)"/>
        <path id="Path_1890" data-name="Path 1890" d="M39.514,8.318H39.44A17.226,17.226,0,0,1,26.854,2.823a.807.807,0,0,0-1.114,0A17.226,17.226,0,0,1,13.154,8.318H13.08a.784.784,0,0,0-.78.78v8.428a20.773,20.773,0,0,0,9.208,17.264l4.344,2.933a.8.8,0,0,0,.446.149.648.648,0,0,0,.446-.149l4.344-2.933a20.773,20.773,0,0,0,9.208-17.264V9.06A.8.8,0,0,0,39.514,8.318ZM32.5,17.6,26,24.654a1.742,1.742,0,0,1-1.3.557,1.891,1.891,0,0,1-1.3-.557l-3.267-3.527a1.787,1.787,0,0,1,2.636-2.413l1.968,2.116,5.2-5.606a1.772,1.772,0,0,1,2.525-.111A1.792,1.792,0,0,1,32.5,17.6Z" transform="translate(-12.3 -2.6)" fill="#f5de5b" stroke="rgba(245,222,91,0.97)" stroke-width="2"/>
      </g>
      <path id="Union_1" data-name="Union 1" d="M13.552,35.126,9.208,32.192A20.773,20.773,0,0,1,0,14.926V6.5a.784.784,0,0,1,.779-.78H.854A17.227,17.227,0,0,0,13.441.223a.806.806,0,0,1,1.114,0A17.227,17.227,0,0,0,27.142,5.718h.075A.8.8,0,0,1,28,6.461v8.465a20.774,20.774,0,0,1-9.209,17.266l-4.344,2.933a.649.649,0,0,1-.445.149A.8.8,0,0,1,13.552,35.126Z" transform="translate(-19779.385 -14448.598)" fill="none" stroke="rgba(224,197,40,0.97)" stroke-width="3"/>
    </g>
  </g>
</svg>
