<?xml version="1.0" encoding="utf-8"?>
<!-- Generator: Adobe Illustrator 16.0.0, SVG Export Plug-In . SVG Version: 6.00 Build 0)  -->
<!DOCTYPE svg PUBLIC "-//W3C//DTD SVG 1.1//EN" "http://www.w3.org/Graphics/SVG/1.1/DTD/svg11.dtd">
<svg version="1.1" id="Layer_1" xmlns="http://www.w3.org/2000/svg" xmlns:xlink="http://www.w3.org/1999/xlink" x="0px" y="0px"
	 width="17.37px" height="17.315px" viewBox="3.662 2.738 17.37 17.315" enable-background="new 3.662 2.738 17.37 17.315"
	 xml:space="preserve">
<g id="Group_2562" transform="translate(-1507 -1530)">
	<rect id="Rectangle_472" x="1507" y="1530" fill="none" width="24" height="23"/>
	<path id="Icon_open-clock" fill="#50A2B5" d="M1519.372,1532.972c-4.639,0-8.4,3.761-8.4,8.4c0,4.64,3.761,8.399,8.4,8.399
		c4.64,0,8.399-3.76,8.399-8.399C1527.758,1536.739,1524.006,1532.986,1519.372,1532.972z M1519.372,1535.072
		c3.479,0,6.3,2.82,6.3,6.3s-2.82,6.3-6.3,6.3s-6.3-2.82-6.3-6.3l0,0c-0.004-3.476,2.81-6.296,6.286-6.3
		C1519.363,1535.072,1519.367,1535.072,1519.372,1535.072z M1518.323,1537.172v4.664l0.336,0.273l1.05,1.05l0.714,0.8l1.513-1.512
		l-0.801-0.714l-0.714-0.714v-3.8h-2.1L1518.323,1537.172z"/>
</g>
</svg>
