<svg xmlns="http://www.w3.org/2000/svg" width="27" height="27" viewBox="0 0 27 27"><defs><style>.a{fill:#fff;opacity:0;}.b{fill:#bba3d9;}</style></defs><g transform="translate(-45 -649)"><rect class="a" width="27" height="27" transform="translate(45 649)"/><path class="b" d="M23.9,7.4H21.7v9.9H7.4v2.2a1.1,1.1,0,0,0,1.1,1.1H20.6L25,25V8.5A1.1,1.1,0,0,0,23.9,7.4ZM19.5,14V4.1A1.1,1.1,0,0,0,18.4,3H4.1A1.1,1.1,0,0,0,3,4.1V19.5l4.4-4.4h11A1.1,1.1,0,0,0,19.5,14Z" transform="translate(45 649)"/></g></svg>