<svg xmlns="http://www.w3.org/2000/svg" width="27" height="27" viewBox="0 0 27 27"><defs><style>.a{fill:#fff;opacity:0;}.b{fill:#bca3d9;}</style></defs><g transform="translate(-43 -470)"><rect class="a" width="27" height="27" transform="translate(43 470)"/><path class="b" d="M8.008,9.25a4.6,4.6,0,0,0,4.576-4.625,4.576,4.576,0,1,0-9.152,0A4.6,4.6,0,0,0,8.008,9.25Zm3.425,1.178L9.724,17.344,8.58,12.43l1.144-2.023H6.292L7.436,12.43,6.292,17.344,4.583,10.428A4.825,4.825,0,0,0,0,15.263v1.5A1.726,1.726,0,0,0,1.716,18.5H14.3a1.726,1.726,0,0,0,1.716-1.734v-1.5a4.825,4.825,0,0,0-4.583-4.835Z" transform="translate(48 474)"/></g></svg>