<svg xmlns="http://www.w3.org/2000/svg" width="14.976" height="14.976" viewBox="0 0 14.976 14.976"><path d="M25.674,4.5H21.3a.541.541,0,0,0-.542.542V5.05a.541.541,0,0,0,.542.542h3.03l-4.536,4.567a.542.542,0,0,0,.764.768l4.567-4.539v3.03a.541.541,0,0,0,.542.542h.008a.541.541,0,0,0,.542-.542V5.042A.541.541,0,0,0,25.674,4.5Z" transform="translate(-11.24 -4.5)"/><path d="M10.541,19.631a.537.537,0,0,0-.382.156L5.592,24.327V21.3a.541.541,0,0,0-.542-.542H5.042A.541.541,0,0,0,4.5,21.3v4.376a.541.541,0,0,0,.542.542H9.418a.541.541,0,0,0,.542-.542v-.008a.541.541,0,0,0-.542-.542H6.388l4.536-4.567a.542.542,0,0,0-.382-.924Z" transform="translate(-4.5 -11.238)"/></svg>