<svg xmlns="http://www.w3.org/2000/svg" width="27" height="27" viewBox="0 0 27 27"><defs><style>.a{fill:#fff;opacity:0;}.b{fill:#bca3d9;}</style></defs><g transform="translate(-45 -573)"><rect class="a" width="27" height="27" transform="translate(45 573)"/><path class="b" d="M7.394,5.067V22.1a.743.743,0,0,1-.74.74h0a.743.743,0,0,1-.74-.74V6.76H5.067A1.69,1.69,0,0,0,3.375,8.452V23.683a1.69,1.69,0,0,0,1.692,1.692H23.741a1.635,1.635,0,0,0,1.634-1.634V5.067a1.69,1.69,0,0,0-1.692-1.692l-14.7.106A1.516,1.516,0,0,0,7.394,5.067Zm3.49,1.692h4.442a.743.743,0,0,1,.74.74h0a.743.743,0,0,1-.74.74H10.885a.743.743,0,0,1-.74-.74h0A.743.743,0,0,1,10.885,6.76Zm0,8.462h7.827a.743.743,0,0,1,.74.74h0a.743.743,0,0,1-.74.74H10.885a.743.743,0,0,1-.74-.74h0A.743.743,0,0,1,10.885,15.221ZM21.25,20.933H10.885a.743.743,0,0,1-.74-.74h0a.743.743,0,0,1,.74-.74H21.25a.743.743,0,0,1,.74.74h0A.743.743,0,0,1,21.25,20.933Zm0-8.462H10.885a.743.743,0,0,1-.74-.74h0a.743.743,0,0,1,.74-.74H21.25a.743.743,0,0,1,.74.74h0A.743.743,0,0,1,21.25,12.471Z" transform="translate(44.625 572.625)"/></g></svg>