<svg xmlns="http://www.w3.org/2000/svg" width="27" height="27" viewBox="0 0 27 27"><defs><style>.a{fill:#fff;opacity:0;}.b{fill:#bca3d9;}</style></defs><g transform="translate(-45 -418)"><rect class="a" width="27" height="27" transform="translate(45 418)"/><path class="b" d="M32.361,6.815h-.055a12.7,12.7,0,0,1-9.278-4.051.6.6,0,0,0-.821,0,12.7,12.7,0,0,1-9.278,4.051h-.055a.578.578,0,0,0-.575.575V13.6a15.313,15.313,0,0,0,6.787,12.726l3.2,2.162a.587.587,0,0,0,.328.109.478.478,0,0,0,.328-.109l3.2-2.162A15.313,15.313,0,0,0,32.936,13.6V7.362A.592.592,0,0,0,32.361,6.815Zm-5.173,6.842-4.789,5.2a1.284,1.284,0,0,1-.958.411,1.394,1.394,0,0,1-.958-.411l-2.408-2.6a1.317,1.317,0,1,1,1.943-1.779l1.451,1.56L25.3,11.905a1.306,1.306,0,0,1,1.861-.082A1.321,1.321,0,0,1,27.188,13.657Z" transform="translate(35.699 416.399)"/></g></svg>