<svg xmlns="http://www.w3.org/2000/svg" width="27" height="27" viewBox="0 0 27 27"><defs><style>.a{fill:#fff;opacity:0;}.b{fill:#bba3d9;}</style></defs><g transform="translate(4751 5239)"><rect class="a" width="27" height="27" transform="translate(-4751 -5239)"/><path class="b" d="M25.713,17.274A10.131,10.131,0,0,0,25.8,16a10.131,10.131,0,0,0-.091-1.274l2.743-2.145a.656.656,0,0,0,.156-.832l-2.6-4.5a.653.653,0,0,0-.793-.286l-3.237,1.3a9.5,9.5,0,0,0-2.2-1.274l-.494-3.445A.634.634,0,0,0,18.654,3h-5.2a.634.634,0,0,0-.637.546l-.494,3.445a9.988,9.988,0,0,0-2.2,1.274l-3.237-1.3a.634.634,0,0,0-.793.286l-2.6,4.5a.641.641,0,0,0,.156.832L6.4,14.726A10.31,10.31,0,0,0,6.3,16,10.31,10.31,0,0,0,6.4,17.274L3.652,19.419a.656.656,0,0,0-.156.832l2.6,4.5a.653.653,0,0,0,.793.286l3.237-1.3a9.5,9.5,0,0,0,2.2,1.274l.494,3.445a.634.634,0,0,0,.637.546h5.2a.634.634,0,0,0,.637-.546l.494-3.445a9.988,9.988,0,0,0,2.2-1.274l3.237,1.3a.634.634,0,0,0,.793-.286l2.6-4.5a.656.656,0,0,0-.156-.832l-2.743-2.145ZM16.054,20.55A4.55,4.55,0,1,1,20.6,16,4.555,4.555,0,0,1,16.054,20.55Z" transform="translate(-4753.406 -5241)"/></g></svg>